<mxfile host="Electron" modified="2023-09-30T17:30:14.629Z" agent="Mozilla/5.0 (Windows NT 10.0; Win64; x64) AppleWebKit/537.36 (KHTML, like Gecko) draw.io/22.0.0 Chrome/114.0.5735.289 Electron/25.8.3 Safari/537.36" etag="qyuHt3OT4XqoimxZnIm8" version="22.0.0" type="device">
  <diagram name="Page-1" id="GwY-oJApjowpqIeMY3pv">
    <mxGraphModel dx="1418" dy="828" grid="1" gridSize="10" guides="1" tooltips="1" connect="1" arrows="1" fold="1" page="1" pageScale="1" pageWidth="1600" pageHeight="1200" math="0" shadow="0">
      <root>
        <mxCell id="0" />
        <mxCell id="1" parent="0" />
        <mxCell id="AKKU1-GDSKN5476XEjXo-9" value="&amp;lt;&amp;lt;interface&amp;gt;&amp;gt;&lt;br&gt;IFileLock" style="swimlane;fontStyle=0;childLayout=stackLayout;horizontal=1;startSize=26;fillColor=none;horizontalStack=0;resizeParent=1;resizeParentMax=0;resizeLast=0;collapsible=1;marginBottom=0;html=1;" parent="1" vertex="1">
          <mxGeometry x="414.68" y="120" width="170" height="78" as="geometry" />
        </mxCell>
        <mxCell id="AKKU1-GDSKN5476XEjXo-10" value="+ FileLockStatus&amp;nbsp;flLock()" style="text;strokeColor=none;fillColor=none;align=left;verticalAlign=top;spacingLeft=4;spacingRight=4;overflow=hidden;rotatable=0;points=[[0,0.5],[1,0.5]];portConstraint=eastwest;whiteSpace=wrap;html=1;" parent="AKKU1-GDSKN5476XEjXo-9" vertex="1">
          <mxGeometry y="26" width="170" height="26" as="geometry" />
        </mxCell>
        <mxCell id="AKKU1-GDSKN5476XEjXo-11" value="+ FileLockStatus&amp;nbsp;flUnlock()" style="text;strokeColor=none;fillColor=none;align=left;verticalAlign=top;spacingLeft=4;spacingRight=4;overflow=hidden;rotatable=0;points=[[0,0.5],[1,0.5]];portConstraint=eastwest;whiteSpace=wrap;html=1;" parent="AKKU1-GDSKN5476XEjXo-9" vertex="1">
          <mxGeometry y="52" width="170" height="26" as="geometry" />
        </mxCell>
        <mxCell id="AKKU1-GDSKN5476XEjXo-14" value="windowsFileLock" style="swimlane;fontStyle=0;childLayout=stackLayout;horizontal=1;startSize=26;fillColor=none;horizontalStack=0;resizeParent=1;resizeParentMax=0;resizeLast=0;collapsible=1;marginBottom=0;html=1;" parent="1" vertex="1">
          <mxGeometry x="289.68" y="320" width="170" height="130" as="geometry" />
        </mxCell>
        <mxCell id="AKKU1-GDSKN5476XEjXo-15" value="+ FileLockStatus&amp;nbsp;flLock()" style="text;strokeColor=none;fillColor=none;align=left;verticalAlign=top;spacingLeft=4;spacingRight=4;overflow=hidden;rotatable=0;points=[[0,0.5],[1,0.5]];portConstraint=eastwest;whiteSpace=wrap;html=1;" parent="AKKU1-GDSKN5476XEjXo-14" vertex="1">
          <mxGeometry y="26" width="170" height="26" as="geometry" />
        </mxCell>
        <mxCell id="AKKU1-GDSKN5476XEjXo-16" value="+ FileLockStatus&amp;nbsp;flUnlock()" style="text;strokeColor=none;fillColor=none;align=left;verticalAlign=top;spacingLeft=4;spacingRight=4;overflow=hidden;rotatable=0;points=[[0,0.5],[1,0.5]];portConstraint=eastwest;whiteSpace=wrap;html=1;" parent="AKKU1-GDSKN5476XEjXo-14" vertex="1">
          <mxGeometry y="52" width="170" height="26" as="geometry" />
        </mxCell>
        <mxCell id="AKKU1-GDSKN5476XEjXo-21" value="- HANDLE fd" style="text;strokeColor=none;fillColor=none;align=left;verticalAlign=top;spacingLeft=4;spacingRight=4;overflow=hidden;rotatable=0;points=[[0,0.5],[1,0.5]];portConstraint=eastwest;whiteSpace=wrap;html=1;" parent="AKKU1-GDSKN5476XEjXo-14" vertex="1">
          <mxGeometry y="78" width="170" height="26" as="geometry" />
        </mxCell>
        <mxCell id="AKKU1-GDSKN5476XEjXo-22" value="- string lockFileName" style="text;strokeColor=none;fillColor=none;align=left;verticalAlign=top;spacingLeft=4;spacingRight=4;overflow=hidden;rotatable=0;points=[[0,0.5],[1,0.5]];portConstraint=eastwest;whiteSpace=wrap;html=1;" parent="AKKU1-GDSKN5476XEjXo-14" vertex="1">
          <mxGeometry y="104" width="170" height="26" as="geometry" />
        </mxCell>
        <mxCell id="AKKU1-GDSKN5476XEjXo-23" value="" style="endArrow=none;html=1;rounded=0;exitX=-0.004;exitY=1.093;exitDx=0;exitDy=0;exitPerimeter=0;entryX=1.001;entryY=0.093;entryDx=0;entryDy=0;entryPerimeter=0;" parent="AKKU1-GDSKN5476XEjXo-14" source="AKKU1-GDSKN5476XEjXo-16" target="AKKU1-GDSKN5476XEjXo-21" edge="1">
          <mxGeometry width="50" height="50" relative="1" as="geometry">
            <mxPoint x="200" y="10" as="sourcePoint" />
            <mxPoint x="250" y="-40" as="targetPoint" />
          </mxGeometry>
        </mxCell>
        <mxCell id="AKKU1-GDSKN5476XEjXo-24" value="linuxFileLock" style="swimlane;fontStyle=0;childLayout=stackLayout;horizontal=1;startSize=26;fillColor=none;horizontalStack=0;resizeParent=1;resizeParentMax=0;resizeLast=0;collapsible=1;marginBottom=0;html=1;" parent="1" vertex="1">
          <mxGeometry x="539.6800000000001" y="320" width="170" height="130" as="geometry" />
        </mxCell>
        <mxCell id="AKKU1-GDSKN5476XEjXo-25" value="+ FileLockStatus&amp;nbsp;flLock()" style="text;strokeColor=none;fillColor=none;align=left;verticalAlign=top;spacingLeft=4;spacingRight=4;overflow=hidden;rotatable=0;points=[[0,0.5],[1,0.5]];portConstraint=eastwest;whiteSpace=wrap;html=1;" parent="AKKU1-GDSKN5476XEjXo-24" vertex="1">
          <mxGeometry y="26" width="170" height="26" as="geometry" />
        </mxCell>
        <mxCell id="AKKU1-GDSKN5476XEjXo-26" value="+ FileLockStatus&amp;nbsp;flUnlock()" style="text;strokeColor=none;fillColor=none;align=left;verticalAlign=top;spacingLeft=4;spacingRight=4;overflow=hidden;rotatable=0;points=[[0,0.5],[1,0.5]];portConstraint=eastwest;whiteSpace=wrap;html=1;" parent="AKKU1-GDSKN5476XEjXo-24" vertex="1">
          <mxGeometry y="52" width="170" height="26" as="geometry" />
        </mxCell>
        <mxCell id="AKKU1-GDSKN5476XEjXo-27" value="- int fd" style="text;strokeColor=none;fillColor=none;align=left;verticalAlign=top;spacingLeft=4;spacingRight=4;overflow=hidden;rotatable=0;points=[[0,0.5],[1,0.5]];portConstraint=eastwest;whiteSpace=wrap;html=1;" parent="AKKU1-GDSKN5476XEjXo-24" vertex="1">
          <mxGeometry y="78" width="170" height="26" as="geometry" />
        </mxCell>
        <mxCell id="AKKU1-GDSKN5476XEjXo-28" value="- string lockFileName" style="text;strokeColor=none;fillColor=none;align=left;verticalAlign=top;spacingLeft=4;spacingRight=4;overflow=hidden;rotatable=0;points=[[0,0.5],[1,0.5]];portConstraint=eastwest;whiteSpace=wrap;html=1;" parent="AKKU1-GDSKN5476XEjXo-24" vertex="1">
          <mxGeometry y="104" width="170" height="26" as="geometry" />
        </mxCell>
        <mxCell id="AKKU1-GDSKN5476XEjXo-29" value="" style="endArrow=none;html=1;rounded=0;exitX=-0.004;exitY=1.093;exitDx=0;exitDy=0;exitPerimeter=0;entryX=1.001;entryY=0.093;entryDx=0;entryDy=0;entryPerimeter=0;" parent="AKKU1-GDSKN5476XEjXo-24" source="AKKU1-GDSKN5476XEjXo-26" target="AKKU1-GDSKN5476XEjXo-27" edge="1">
          <mxGeometry width="50" height="50" relative="1" as="geometry">
            <mxPoint x="200" y="10" as="sourcePoint" />
            <mxPoint x="250" y="-40" as="targetPoint" />
          </mxGeometry>
        </mxCell>
        <mxCell id="AKKU1-GDSKN5476XEjXo-30" value="" style="endArrow=block;dashed=1;html=1;dashPattern=1 3;strokeWidth=2;rounded=0;exitX=0.5;exitY=0;exitDx=0;exitDy=0;startArrow=none;startFill=0;endFill=0;" parent="1" source="AKKU1-GDSKN5476XEjXo-14" edge="1">
          <mxGeometry width="50" height="50" relative="1" as="geometry">
            <mxPoint x="389.68" y="270" as="sourcePoint" />
            <mxPoint x="499.68" y="200" as="targetPoint" />
          </mxGeometry>
        </mxCell>
        <mxCell id="AKKU1-GDSKN5476XEjXo-31" value="" style="endArrow=block;dashed=1;html=1;dashPattern=1 3;strokeWidth=2;rounded=0;exitX=0.5;exitY=0;exitDx=0;exitDy=0;endFill=0;" parent="1" source="AKKU1-GDSKN5476XEjXo-24" edge="1">
          <mxGeometry width="50" height="50" relative="1" as="geometry">
            <mxPoint x="384.68" y="330" as="sourcePoint" />
            <mxPoint x="499.68" y="200" as="targetPoint" />
          </mxGeometry>
        </mxCell>
        <mxCell id="cfF8A22mIDIP_HkxMsJU-2" value="" style="shape=curlyBracket;whiteSpace=wrap;html=1;rounded=1;flipH=1;labelPosition=right;verticalLabelPosition=middle;align=left;verticalAlign=middle;" vertex="1" parent="1">
          <mxGeometry x="719" y="99" width="80" height="381" as="geometry" />
        </mxCell>
        <mxCell id="cfF8A22mIDIP_HkxMsJU-3" value="fileLockFactory" style="swimlane;fontStyle=0;childLayout=stackLayout;horizontal=1;startSize=26;fillColor=none;horizontalStack=0;resizeParent=1;resizeParentMax=0;resizeLast=0;collapsible=1;marginBottom=0;html=1;" vertex="1" parent="1">
          <mxGeometry x="829" y="263.5" width="240" height="52" as="geometry" />
        </mxCell>
        <mxCell id="cfF8A22mIDIP_HkxMsJU-4" value="+ unique_ptr&amp;lt;IFileLock&amp;gt; createFileLock" style="text;strokeColor=none;fillColor=none;align=left;verticalAlign=top;spacingLeft=4;spacingRight=4;overflow=hidden;rotatable=0;points=[[0,0.5],[1,0.5]];portConstraint=eastwest;whiteSpace=wrap;html=1;" vertex="1" parent="cfF8A22mIDIP_HkxMsJU-3">
          <mxGeometry y="26" width="240" height="26" as="geometry" />
        </mxCell>
      </root>
    </mxGraphModel>
  </diagram>
</mxfile>
